<svg width="242" height="73" viewBox="0 0 242 73" fill="none" xmlns="http://www.w3.org/2000/svg">
<rect width="242" height="73" rx="18" fill="#3B45EF"/>
<path fill-rule="evenodd" clip-rule="evenodd" d="M44.8643 20.8647C46.494 19.048 47.5925 16.5176 47.2919 14C44.9435 14.086 42.1022 15.443 40.4183 17.2576C38.9061 18.8679 37.5861 21.441 37.941 23.9092C40.5607 24.0962 43.2346 22.6836 44.8643 20.8647ZM50.7389 36.844C50.8045 43.352 56.9322 45.5169 57 45.5448C56.9503 45.6975 56.0213 48.6296 53.7723 51.661C51.8261 54.2797 49.8077 56.8878 46.6274 56.9437C43.5036 56.9975 42.4978 55.2367 38.9242 55.2367C35.3529 55.2367 34.2363 56.8876 31.2798 56.9972C28.2103 57.1026 25.8709 54.164 23.9112 51.554C19.9013 46.2155 16.8386 36.4679 20.9524 29.8889C22.9957 26.6231 26.6461 24.5518 30.6107 24.5002C33.6238 24.4465 36.4695 26.3689 38.3117 26.3689C40.1538 26.3689 43.6121 24.0577 47.2467 24.3974C48.7679 24.4554 53.0399 24.9626 55.7817 28.6628C55.5602 28.7896 50.6847 31.4045 50.7389 36.844Z" fill="white"/>
<path d="M76.065 29V18.5H79.47C80.7 18.5 81.71 18.715 82.5 19.145C83.3 19.575 83.89 20.185 84.27 20.975C84.66 21.755 84.855 22.685 84.855 23.765C84.855 24.835 84.66 25.765 84.27 26.555C83.89 27.335 83.3 27.94 82.5 28.37C81.71 28.79 80.7 29 79.47 29H76.065ZM77.655 27.65H79.41C80.36 27.65 81.11 27.495 81.66 27.185C82.22 26.875 82.62 26.43 82.86 25.85C83.11 25.27 83.235 24.575 83.235 23.765C83.235 22.955 83.11 22.255 82.86 21.665C82.62 21.075 82.22 20.625 81.66 20.315C81.11 19.995 80.36 19.835 79.41 19.835H77.655V27.65ZM90.0319 29.18C89.3219 29.18 88.6819 29.02 88.1119 28.7C87.5519 28.37 87.1069 27.915 86.7769 27.335C86.4469 26.745 86.2819 26.06 86.2819 25.28C86.2819 24.5 86.4469 23.82 86.7769 23.24C87.1169 22.65 87.5719 22.195 88.1419 21.875C88.7119 21.545 89.3469 21.38 90.0469 21.38C90.7569 21.38 91.3919 21.545 91.9519 21.875C92.5219 22.195 92.9719 22.65 93.3019 23.24C93.6419 23.82 93.8119 24.5 93.8119 25.28C93.8119 26.06 93.6419 26.745 93.3019 27.335C92.9719 27.915 92.5219 28.37 91.9519 28.7C91.3819 29.02 90.7419 29.18 90.0319 29.18ZM90.0319 27.815C90.4119 27.815 90.7619 27.72 91.0819 27.53C91.4119 27.34 91.6769 27.06 91.8769 26.69C92.0769 26.31 92.1769 25.84 92.1769 25.28C92.1769 24.72 92.0769 24.255 91.8769 23.885C91.6869 23.505 91.4269 23.22 91.0969 23.03C90.7769 22.84 90.4269 22.745 90.0469 22.745C89.6669 22.745 89.3119 22.84 88.9819 23.03C88.6619 23.22 88.4019 23.505 88.2019 23.885C88.0019 24.255 87.9019 24.72 87.9019 25.28C87.9019 25.84 88.0019 26.31 88.2019 26.69C88.4019 27.06 88.6619 27.34 88.9819 27.53C89.3019 27.72 89.6519 27.815 90.0319 27.815ZM96.738 29L94.548 21.56H96.138L97.578 27.17L99.198 21.56H100.968L102.588 27.17L104.028 21.56H105.618L103.428 29H101.793L100.083 23.15L98.373 29H96.738ZM106.928 29V21.56H108.338L108.458 22.865C108.688 22.405 109.023 22.045 109.463 21.785C109.913 21.515 110.428 21.38 111.008 21.38C111.908 21.38 112.613 21.66 113.123 22.22C113.643 22.78 113.903 23.615 113.903 24.725V29H112.328V24.89C112.328 23.45 111.738 22.73 110.558 22.73C109.968 22.73 109.478 22.94 109.088 23.36C108.708 23.78 108.518 24.38 108.518 25.16V29H106.928ZM115.776 29V18.2H117.366V29H115.776ZM122.859 29.18C122.149 29.18 121.509 29.02 120.939 28.7C120.379 28.37 119.934 27.915 119.604 27.335C119.274 26.745 119.109 26.06 119.109 25.28C119.109 24.5 119.274 23.82 119.604 23.24C119.944 22.65 120.399 22.195 120.969 21.875C121.539 21.545 122.174 21.38 122.874 21.38C123.584 21.38 124.219 21.545 124.779 21.875C125.349 22.195 125.799 22.65 126.129 23.24C126.469 23.82 126.639 24.5 126.639 25.28C126.639 26.06 126.469 26.745 126.129 27.335C125.799 27.915 125.349 28.37 124.779 28.7C124.209 29.02 123.569 29.18 122.859 29.18ZM122.859 27.815C123.239 27.815 123.589 27.72 123.909 27.53C124.239 27.34 124.504 27.06 124.704 26.69C124.904 26.31 125.004 25.84 125.004 25.28C125.004 24.72 124.904 24.255 124.704 23.885C124.514 23.505 124.254 23.22 123.924 23.03C123.604 22.84 123.254 22.745 122.874 22.745C122.494 22.745 122.139 22.84 121.809 23.03C121.489 23.22 121.229 23.505 121.029 23.885C120.829 24.255 120.729 24.72 120.729 25.28C120.729 25.84 120.829 26.31 121.029 26.69C121.229 27.06 121.489 27.34 121.809 27.53C122.129 27.72 122.479 27.815 122.859 27.815ZM130.879 29.18C130.249 29.18 129.729 29.075 129.319 28.865C128.909 28.655 128.604 28.38 128.404 28.04C128.204 27.69 128.104 27.31 128.104 26.9C128.104 26.18 128.384 25.61 128.944 25.19C129.504 24.77 130.304 24.56 131.344 24.56H133.294V24.425C133.294 23.845 133.134 23.41 132.814 23.12C132.504 22.83 132.099 22.685 131.599 22.685C131.159 22.685 130.774 22.795 130.444 23.015C130.124 23.225 129.929 23.54 129.859 23.96H128.269C128.319 23.42 128.499 22.96 128.809 22.58C129.129 22.19 129.529 21.895 130.009 21.695C130.499 21.485 131.034 21.38 131.614 21.38C132.654 21.38 133.459 21.655 134.029 22.205C134.599 22.745 134.884 23.485 134.884 24.425V29H133.504L133.369 27.725C133.159 28.135 132.854 28.48 132.454 28.76C132.054 29.04 131.529 29.18 130.879 29.18ZM131.194 27.89C131.624 27.89 131.984 27.79 132.274 27.59C132.574 27.38 132.804 27.105 132.964 26.765C133.134 26.425 133.239 26.05 133.279 25.64H131.509C130.879 25.64 130.429 25.75 130.159 25.97C129.899 26.19 129.769 26.465 129.769 26.795C129.769 27.135 129.894 27.405 130.144 27.605C130.404 27.795 130.754 27.89 131.194 27.89ZM140.127 29.18C139.407 29.18 138.772 29.01 138.222 28.67C137.672 28.33 137.242 27.865 136.932 27.275C136.622 26.685 136.467 26.015 136.467 25.265C136.467 24.515 136.622 23.85 136.932 23.27C137.242 22.68 137.672 22.22 138.222 21.89C138.782 21.55 139.422 21.38 140.142 21.38C140.732 21.38 141.247 21.495 141.687 21.725C142.137 21.955 142.487 22.28 142.737 22.7V18.2H144.327V29H142.902L142.737 27.845C142.497 28.195 142.167 28.505 141.747 28.775C141.327 29.045 140.787 29.18 140.127 29.18ZM140.412 27.8C141.092 27.8 141.647 27.565 142.077 27.095C142.517 26.625 142.737 26.02 142.737 25.28C142.737 24.53 142.517 23.925 142.077 23.465C141.647 22.995 141.092 22.76 140.412 22.76C139.732 22.76 139.172 22.995 138.732 23.465C138.292 23.925 138.072 24.53 138.072 25.28C138.072 25.77 138.172 26.205 138.372 26.585C138.572 26.965 138.847 27.265 139.197 27.485C139.557 27.695 139.962 27.8 140.412 27.8ZM153.591 29.18C152.881 29.18 152.241 29.02 151.671 28.7C151.111 28.37 150.666 27.915 150.336 27.335C150.006 26.745 149.841 26.06 149.841 25.28C149.841 24.5 150.006 23.82 150.336 23.24C150.676 22.65 151.131 22.195 151.701 21.875C152.271 21.545 152.906 21.38 153.606 21.38C154.316 21.38 154.951 21.545 155.511 21.875C156.081 22.195 156.531 22.65 156.861 23.24C157.201 23.82 157.371 24.5 157.371 25.28C157.371 26.06 157.201 26.745 156.861 27.335C156.531 27.915 156.081 28.37 155.511 28.7C154.941 29.02 154.301 29.18 153.591 29.18ZM153.591 27.815C153.971 27.815 154.321 27.72 154.641 27.53C154.971 27.34 155.236 27.06 155.436 26.69C155.636 26.31 155.736 25.84 155.736 25.28C155.736 24.72 155.636 24.255 155.436 23.885C155.246 23.505 154.986 23.22 154.656 23.03C154.336 22.84 153.986 22.745 153.606 22.745C153.226 22.745 152.871 22.84 152.541 23.03C152.221 23.22 151.961 23.505 151.761 23.885C151.561 24.255 151.461 24.72 151.461 25.28C151.461 25.84 151.561 26.31 151.761 26.69C151.961 27.06 152.221 27.34 152.541 27.53C152.861 27.72 153.211 27.815 153.591 27.815ZM159.091 29V21.56H160.501L160.621 22.865C160.851 22.405 161.186 22.045 161.626 21.785C162.076 21.515 162.591 21.38 163.171 21.38C164.071 21.38 164.776 21.66 165.286 22.22C165.806 22.78 166.066 23.615 166.066 24.725V29H164.491V24.89C164.491 23.45 163.901 22.73 162.721 22.73C162.131 22.73 161.641 22.94 161.251 23.36C160.871 23.78 160.681 24.38 160.681 25.16V29H159.091ZM174.838 29C174.108 29 173.528 28.825 173.098 28.475C172.668 28.115 172.453 27.48 172.453 26.57V22.895H171.178V21.56H172.453L172.648 19.67H174.043V21.56H176.143V22.895H174.043V26.57C174.043 26.98 174.128 27.265 174.298 27.425C174.478 27.575 174.783 27.65 175.213 27.65H176.068V29H174.838ZM177.782 29V18.2H179.372V22.76C179.622 22.33 179.967 21.995 180.407 21.755C180.857 21.505 181.352 21.38 181.892 21.38C182.782 21.38 183.482 21.66 183.992 22.22C184.502 22.78 184.757 23.615 184.757 24.725V29H183.182V24.89C183.182 23.45 182.607 22.73 181.457 22.73C180.857 22.73 180.357 22.94 179.957 23.36C179.567 23.78 179.372 24.38 179.372 25.16V29H177.782ZM190.11 29.18C189.38 29.18 188.73 29.02 188.16 28.7C187.6 28.37 187.16 27.915 186.84 27.335C186.52 26.755 186.36 26.08 186.36 25.31C186.36 24.53 186.515 23.845 186.825 23.255C187.145 22.665 187.585 22.205 188.145 21.875C188.715 21.545 189.375 21.38 190.125 21.38C190.855 21.38 191.49 21.545 192.03 21.875C192.57 22.195 192.99 22.625 193.29 23.165C193.59 23.705 193.74 24.3 193.74 24.95C193.74 25.05 193.735 25.16 193.725 25.28C193.725 25.39 193.72 25.515 193.71 25.655H187.92C187.97 26.375 188.205 26.925 188.625 27.305C189.055 27.675 189.55 27.86 190.11 27.86C190.56 27.86 190.935 27.76 191.235 27.56C191.545 27.35 191.775 27.07 191.925 26.72H193.515C193.315 27.42 192.915 28.005 192.315 28.475C191.725 28.945 190.99 29.18 190.11 29.18ZM190.11 22.685C189.58 22.685 189.11 22.845 188.7 23.165C188.29 23.475 188.04 23.945 187.95 24.575H192.15C192.12 23.995 191.915 23.535 191.535 23.195C191.155 22.855 190.68 22.685 190.11 22.685Z" fill="white"/>
<path d="M75.624 57L81.816 40.2H84.6L90.744 57H88.056L86.616 52.896H79.752L78.312 57H75.624ZM80.472 50.88H85.896L83.184 43.224L80.472 50.88ZM92.9908 62.28V45.096H95.2708L95.5348 46.944C95.9188 46.384 96.4468 45.888 97.1188 45.456C97.7908 45.024 98.6548 44.808 99.7108 44.808C100.863 44.808 101.879 45.08 102.759 45.624C103.639 46.168 104.327 46.912 104.823 47.856C105.335 48.8 105.591 49.872 105.591 51.072C105.591 52.272 105.335 53.344 104.823 54.288C104.327 55.216 103.639 55.952 102.759 56.496C101.879 57.024 100.855 57.288 99.6868 57.288C98.7588 57.288 97.9348 57.104 97.2148 56.736C96.5108 56.368 95.9508 55.848 95.5348 55.176V62.28H92.9908ZM99.2548 55.08C100.343 55.08 101.239 54.712 101.943 53.976C102.647 53.224 102.999 52.248 102.999 51.048C102.999 50.264 102.839 49.568 102.519 48.96C102.199 48.352 101.759 47.88 101.199 47.544C100.639 47.192 99.9908 47.016 99.2548 47.016C98.1668 47.016 97.2708 47.392 96.5668 48.144C95.8788 48.896 95.5348 49.864 95.5348 51.048C95.5348 52.248 95.8788 53.224 96.5668 53.976C97.2708 54.712 98.1668 55.08 99.2548 55.08ZM108.342 62.28V45.096H110.622L110.886 46.944C111.27 46.384 111.798 45.888 112.47 45.456C113.142 45.024 114.006 44.808 115.062 44.808C116.214 44.808 117.23 45.08 118.11 45.624C118.99 46.168 119.678 46.912 120.174 47.856C120.686 48.8 120.942 49.872 120.942 51.072C120.942 52.272 120.686 53.344 120.174 54.288C119.678 55.216 118.99 55.952 118.11 56.496C117.23 57.024 116.206 57.288 115.038 57.288C114.11 57.288 113.286 57.104 112.566 56.736C111.862 56.368 111.302 55.848 110.886 55.176V62.28H108.342ZM114.606 55.08C115.694 55.08 116.59 54.712 117.294 53.976C117.998 53.224 118.35 52.248 118.35 51.048C118.35 50.264 118.19 49.568 117.87 48.96C117.55 48.352 117.11 47.88 116.55 47.544C115.99 47.192 115.342 47.016 114.606 47.016C113.518 47.016 112.622 47.392 111.918 48.144C111.23 48.896 110.886 49.864 110.886 51.048C110.886 52.248 111.23 53.224 111.918 53.976C112.622 54.712 113.518 55.08 114.606 55.08ZM135.381 57.288C134.149 57.288 133.069 57.072 132.141 56.64C131.213 56.208 130.485 55.592 129.957 54.792C129.445 53.992 129.181 53.04 129.165 51.936H131.853C131.869 52.832 132.181 53.592 132.789 54.216C133.397 54.84 134.253 55.152 135.357 55.152C136.333 55.152 137.093 54.92 137.637 54.456C138.197 53.976 138.477 53.368 138.477 52.632C138.477 52.04 138.341 51.56 138.069 51.192C137.813 50.824 137.453 50.52 136.989 50.28C136.541 50.04 136.021 49.824 135.429 49.632C134.837 49.44 134.213 49.232 133.557 49.008C132.261 48.576 131.285 48.016 130.629 47.328C129.989 46.64 129.669 45.736 129.669 44.616C129.653 43.672 129.869 42.848 130.317 42.144C130.781 41.44 131.421 40.896 132.237 40.512C133.069 40.112 134.037 39.912 135.141 39.912C136.229 39.912 137.181 40.112 137.997 40.512C138.829 40.912 139.477 41.472 139.941 42.192C140.405 42.896 140.645 43.72 140.661 44.664H137.973C137.973 44.232 137.861 43.824 137.637 43.44C137.413 43.04 137.085 42.712 136.653 42.456C136.221 42.2 135.693 42.072 135.069 42.072C134.269 42.056 133.605 42.256 133.077 42.672C132.565 43.088 132.309 43.664 132.309 44.4C132.309 45.056 132.501 45.56 132.885 45.912C133.269 46.264 133.797 46.56 134.469 46.8C135.141 47.024 135.909 47.288 136.773 47.592C137.605 47.864 138.349 48.192 139.005 48.576C139.661 48.96 140.181 49.464 140.565 50.088C140.965 50.712 141.165 51.504 141.165 52.464C141.165 53.312 140.949 54.104 140.517 54.84C140.085 55.56 139.437 56.152 138.573 56.616C137.709 57.064 136.645 57.288 135.381 57.288ZM148.842 57C147.674 57 146.746 56.72 146.058 56.16C145.37 55.584 145.026 54.568 145.026 53.112V47.232H142.986V45.096H145.026L145.338 42.072H147.57V45.096H150.93V47.232H147.57V53.112C147.57 53.768 147.706 54.224 147.978 54.48C148.266 54.72 148.754 54.84 149.442 54.84H150.81V57H148.842ZM158.817 57.288C157.681 57.288 156.657 57.032 155.745 56.52C154.849 55.992 154.137 55.264 153.609 54.336C153.081 53.392 152.817 52.296 152.817 51.048C152.817 49.8 153.081 48.712 153.609 47.784C154.153 46.84 154.881 46.112 155.793 45.6C156.705 45.072 157.721 44.808 158.841 44.808C159.977 44.808 160.993 45.072 161.889 45.6C162.801 46.112 163.521 46.84 164.049 47.784C164.593 48.712 164.865 49.8 164.865 51.048C164.865 52.296 164.593 53.392 164.049 54.336C163.521 55.264 162.801 55.992 161.889 56.52C160.977 57.032 159.953 57.288 158.817 57.288ZM158.817 55.104C159.425 55.104 159.985 54.952 160.497 54.648C161.025 54.344 161.449 53.896 161.769 53.304C162.089 52.696 162.249 51.944 162.249 51.048C162.249 50.152 162.089 49.408 161.769 48.816C161.465 48.208 161.049 47.752 160.521 47.448C160.009 47.144 159.449 46.992 158.841 46.992C158.233 46.992 157.665 47.144 157.137 47.448C156.625 47.752 156.209 48.208 155.889 48.816C155.569 49.408 155.409 50.152 155.409 51.048C155.409 51.944 155.569 52.696 155.889 53.304C156.209 53.896 156.625 54.344 157.137 54.648C157.649 54.952 158.209 55.104 158.817 55.104ZM167.616 57V45.096H169.896L170.112 47.352C170.528 46.568 171.104 45.952 171.84 45.504C172.592 45.04 173.496 44.808 174.552 44.808V47.472H173.856C173.152 47.472 172.52 47.592 171.96 47.832C171.416 48.056 170.976 48.448 170.64 49.008C170.32 49.552 170.16 50.312 170.16 51.288V57H167.616ZM181.973 57.288C180.805 57.288 179.765 57.032 178.853 56.52C177.957 55.992 177.253 55.264 176.741 54.336C176.229 53.408 175.973 52.328 175.973 51.096C175.973 49.848 176.221 48.752 176.717 47.808C177.229 46.864 177.933 46.128 178.829 45.6C179.741 45.072 180.797 44.808 181.997 44.808C183.165 44.808 184.181 45.072 185.045 45.6C185.909 46.112 186.581 46.8 187.061 47.664C187.541 48.528 187.781 49.48 187.781 50.52C187.781 50.68 187.773 50.856 187.757 51.048C187.757 51.224 187.749 51.424 187.733 51.648H178.469C178.549 52.8 178.925 53.68 179.597 54.288C180.285 54.88 181.077 55.176 181.973 55.176C182.693 55.176 183.293 55.016 183.773 54.696C184.269 54.36 184.637 53.912 184.877 53.352H187.421C187.101 54.472 186.461 55.408 185.501 56.16C184.557 56.912 183.381 57.288 181.973 57.288ZM181.973 46.896C181.125 46.896 180.373 47.152 179.717 47.664C179.061 48.16 178.661 48.912 178.517 49.92H185.237C185.189 48.992 184.861 48.256 184.253 47.712C183.645 47.168 182.885 46.896 181.973 46.896Z" fill="white"/>
</svg>
