<svg width="21" height="22" viewBox="0 0 21 22" fill="none" xmlns="http://www.w3.org/2000/svg">
<path fill-rule="evenodd" clip-rule="evenodd" d="M14.0601 3.51216C14.7892 2.58267 15.2807 1.28808 15.1462 0C14.0955 0.044 12.8245 0.738261 12.0711 1.66665C11.3946 2.49054 10.8041 3.80699 10.9629 5.06978C12.1348 5.16546 13.3311 4.44274 14.0601 3.51216ZM16.6882 11.6875C16.7176 15.0172 19.4589 16.1248 19.4893 16.1391C19.467 16.2172 19.0514 17.7173 18.0453 19.2683C17.1746 20.608 16.2716 21.9424 14.8489 21.971C13.4514 21.9985 13.0014 21.0977 11.4027 21.0977C9.80503 21.0977 9.3055 21.9423 7.98286 21.9984C6.60965 22.0523 5.56306 20.5489 4.68635 19.2135C2.89249 16.4822 1.52232 11.4951 3.3627 8.12915C4.27682 6.45827 5.9099 5.39857 7.68354 5.37217C9.03146 5.34467 10.3046 6.32822 11.1287 6.32822C11.9528 6.32822 13.4999 5.14573 15.1259 5.31953C15.8065 5.34923 17.7176 5.60874 18.9442 7.50181C18.8451 7.56671 16.664 8.90454 16.6882 11.6875Z" fill="white"/>
</svg>
