<svg width="242" height="73" viewBox="0 0 242 73" fill="none" xmlns="http://www.w3.org/2000/svg">
<rect width="242" height="73" rx="18" fill="#3B45EF"/>
<g clip-path="url(#clip0_597_1460)">
<path d="M51.1129 28.7496C46.1176 25.9557 38.1001 21.4693 25.6644 14.5062C24.8259 13.9525 23.8613 13.8799 23.0278 14.1621L44.3641 35.4983L51.1129 28.7496Z" fill="#32BBFF"/>
<path d="M23.0279 14.1621C22.8716 14.215 22.7196 14.2788 22.5743 14.3559C21.6539 14.8538 20.9775 15.8118 20.9775 17.0235V53.9733C20.9775 55.1849 21.6538 56.143 22.5743 56.6407C22.7194 56.7177 22.8713 56.7818 23.0273 56.8351L44.3641 35.4984L23.0279 14.1621Z" fill="#32BBFF"/>
<path d="M44.3641 35.4983L23.0273 56.835C23.8611 57.1192 24.8257 57.0522 25.6644 56.4904C37.7244 49.7372 45.6515 45.304 50.7045 42.4863C50.8452 42.4073 50.983 42.33 51.1193 42.2535L44.3641 35.4983Z" fill="#32BBFF"/>
<path d="M20.9775 35.4983V53.9732C20.9775 55.1849 21.6538 56.1429 22.5743 56.6406C22.7194 56.7177 22.8713 56.7817 23.0273 56.835L44.3641 35.4983H20.9775Z" fill="#2C9FD9"/>
<path d="M25.6648 14.5063C24.6692 13.8488 23.4951 13.8675 22.5747 14.356L44.0407 35.8221L51.1132 28.7496C46.1181 25.9557 38.1006 21.4693 25.6648 14.5063Z" fill="#29CC5E"/>
<path d="M44.0409 35.1748L22.5747 56.6408C23.4952 57.1292 24.6692 57.1574 25.6648 56.4906C37.7248 49.7374 45.652 45.3042 50.705 42.4865C50.8457 42.4075 50.9835 42.3302 51.1197 42.2537L44.0409 35.1748Z" fill="#D93F21"/>
<path d="M60.0221 35.4984C60.0221 34.4746 59.5056 33.4414 58.4817 32.8685C58.4817 32.8685 56.5669 31.8001 50.6978 28.5173L43.7168 35.4984L50.7046 42.4863C56.5093 39.2271 58.4816 38.1282 58.4816 38.1282C59.5056 37.5553 60.0221 36.5222 60.0221 35.4984Z" fill="#FFD500"/>
<path d="M58.4817 38.1282C59.5056 37.5552 60.0221 36.5221 60.0221 35.4983H43.7168L50.7046 42.4862C56.5094 39.2271 58.4817 38.1282 58.4817 38.1282Z" fill="#FFAA00"/>
</g>
<path d="M85.625 29.18C84.635 29.18 83.77 28.955 83.03 28.505C82.29 28.055 81.715 27.425 81.305 26.615C80.895 25.805 80.69 24.86 80.69 23.78C80.69 22.71 80.9 21.765 81.32 20.945C81.74 20.125 82.335 19.485 83.105 19.025C83.885 18.555 84.805 18.32 85.865 18.32C87.065 18.32 88.065 18.61 88.865 19.19C89.665 19.77 90.185 20.57 90.425 21.59H88.625C88.465 21.03 88.15 20.59 87.68 20.27C87.21 19.95 86.605 19.79 85.865 19.79C84.765 19.79 83.9 20.145 83.27 20.855C82.64 21.565 82.325 22.545 82.325 23.795C82.325 25.045 82.635 26.02 83.255 26.72C83.875 27.42 84.7 27.77 85.73 27.77C86.77 27.77 87.55 27.475 88.07 26.885C88.6 26.295 88.91 25.51 89 24.53H86.15V23.3H90.605V29H89.15L89.015 27.455C88.665 28.005 88.225 28.43 87.695 28.73C87.165 29.03 86.475 29.18 85.625 29.18ZM92.5347 29V18.5H99.2097V19.79H94.1247V23.06H98.7597V24.32H94.1247V27.71H99.2097V29H92.5347ZM103.564 29V19.79H100.459V18.5H108.244V19.79H105.154V29H103.564ZM113.511 29V18.5H115.101V29H113.511ZM119.692 29V19.79H116.587V18.5H124.372V19.79H121.282V29H119.692ZM134.484 29.18C133.444 29.18 132.534 28.95 131.754 28.49C130.974 28.03 130.364 27.395 129.924 26.585C129.484 25.765 129.264 24.82 129.264 23.75C129.264 22.68 129.484 21.74 129.924 20.93C130.364 20.11 130.974 19.47 131.754 19.01C132.534 18.55 133.444 18.32 134.484 18.32C135.524 18.32 136.434 18.55 137.214 19.01C137.994 19.47 138.599 20.11 139.029 20.93C139.469 21.74 139.689 22.68 139.689 23.75C139.689 24.82 139.469 25.765 139.029 26.585C138.599 27.395 137.994 28.03 137.214 28.49C136.434 28.95 135.524 29.18 134.484 29.18ZM134.484 27.755C135.204 27.755 135.829 27.595 136.359 27.275C136.899 26.955 137.319 26.495 137.619 25.895C137.919 25.295 138.069 24.58 138.069 23.75C138.069 22.92 137.919 22.205 137.619 21.605C137.319 21.005 136.899 20.545 136.359 20.225C135.829 19.905 135.204 19.745 134.484 19.745C133.764 19.745 133.134 19.905 132.594 20.225C132.054 20.545 131.634 21.005 131.334 21.605C131.044 22.205 130.899 22.92 130.899 23.75C130.899 24.58 131.044 25.295 131.334 25.895C131.634 26.495 132.054 26.955 132.594 27.275C133.134 27.595 133.764 27.755 134.484 27.755ZM141.461 29V18.5H143.051L148.316 26.405V18.5H149.906V29H148.316L143.051 21.095V29H141.461Z" fill="white"/>
<path d="M89 57.288C87.416 57.288 86.032 56.928 84.848 56.208C83.664 55.488 82.744 54.48 82.088 53.184C81.432 51.888 81.104 50.376 81.104 48.648C81.104 46.936 81.44 45.424 82.112 44.112C82.784 42.8 83.736 41.776 84.968 41.04C86.216 40.288 87.688 39.912 89.384 39.912C91.304 39.912 92.904 40.376 94.184 41.304C95.464 42.232 96.296 43.512 96.68 45.144H93.8C93.544 44.248 93.04 43.544 92.288 43.032C91.536 42.52 90.568 42.264 89.384 42.264C87.624 42.264 86.24 42.832 85.232 43.968C84.224 45.104 83.72 46.672 83.72 48.672C83.72 50.672 84.216 52.232 85.208 53.352C86.2 54.472 87.52 55.032 89.168 55.032C90.832 55.032 92.08 54.56 92.912 53.616C93.76 52.672 94.256 51.416 94.4 49.848H89.84V47.88H96.968V57H94.64L94.424 54.528C93.864 55.408 93.16 56.088 92.312 56.568C91.464 57.048 90.36 57.288 89 57.288ZM105.528 57.288C104.392 57.288 103.368 57.032 102.456 56.52C101.56 55.992 100.848 55.264 100.32 54.336C99.7916 53.392 99.5276 52.296 99.5276 51.048C99.5276 49.8 99.7916 48.712 100.32 47.784C100.864 46.84 101.592 46.112 102.504 45.6C103.416 45.072 104.432 44.808 105.552 44.808C106.688 44.808 107.704 45.072 108.6 45.6C109.512 46.112 110.232 46.84 110.76 47.784C111.304 48.712 111.576 49.8 111.576 51.048C111.576 52.296 111.304 53.392 110.76 54.336C110.232 55.264 109.512 55.992 108.6 56.52C107.688 57.032 106.664 57.288 105.528 57.288ZM105.528 55.104C106.136 55.104 106.696 54.952 107.208 54.648C107.736 54.344 108.16 53.896 108.48 53.304C108.8 52.696 108.96 51.944 108.96 51.048C108.96 50.152 108.8 49.408 108.48 48.816C108.176 48.208 107.76 47.752 107.232 47.448C106.72 47.144 106.16 46.992 105.552 46.992C104.944 46.992 104.376 47.144 103.848 47.448C103.336 47.752 102.92 48.208 102.6 48.816C102.28 49.408 102.12 50.152 102.12 51.048C102.12 51.944 102.28 52.696 102.6 53.304C102.92 53.896 103.336 54.344 103.848 54.648C104.36 54.952 104.92 55.104 105.528 55.104ZM119.895 57.288C118.759 57.288 117.735 57.032 116.823 56.52C115.927 55.992 115.215 55.264 114.687 54.336C114.159 53.392 113.895 52.296 113.895 51.048C113.895 49.8 114.159 48.712 114.687 47.784C115.231 46.84 115.959 46.112 116.871 45.6C117.783 45.072 118.799 44.808 119.919 44.808C121.055 44.808 122.071 45.072 122.967 45.6C123.879 46.112 124.599 46.84 125.127 47.784C125.671 48.712 125.943 49.8 125.943 51.048C125.943 52.296 125.671 53.392 125.127 54.336C124.599 55.264 123.879 55.992 122.967 56.52C122.055 57.032 121.031 57.288 119.895 57.288ZM119.895 55.104C120.503 55.104 121.063 54.952 121.575 54.648C122.103 54.344 122.527 53.896 122.847 53.304C123.167 52.696 123.327 51.944 123.327 51.048C123.327 50.152 123.167 49.408 122.847 48.816C122.543 48.208 122.127 47.752 121.599 47.448C121.087 47.144 120.527 46.992 119.919 46.992C119.311 46.992 118.743 47.144 118.215 47.448C117.703 47.752 117.287 48.208 116.967 48.816C116.647 49.408 116.487 50.152 116.487 51.048C116.487 51.944 116.647 52.696 116.967 53.304C117.287 53.896 117.703 54.344 118.215 54.648C118.727 54.952 119.287 55.104 119.895 55.104ZM132.933 53.352C132.309 53.352 131.733 53.28 131.205 53.136L130.173 54.144C130.349 54.256 130.565 54.352 130.821 54.432C131.077 54.512 131.437 54.584 131.901 54.648C132.365 54.712 132.997 54.776 133.797 54.84C135.381 54.984 136.525 55.368 137.229 55.992C137.933 56.6 138.285 57.416 138.285 58.44C138.285 59.144 138.093 59.808 137.709 60.432C137.341 61.072 136.757 61.584 135.957 61.968C135.173 62.368 134.165 62.568 132.933 62.568C131.269 62.568 129.917 62.248 128.877 61.608C127.853 60.984 127.341 60.032 127.341 58.752C127.341 58.256 127.469 57.76 127.725 57.264C127.997 56.784 128.421 56.328 128.997 55.896C128.661 55.752 128.365 55.6 128.109 55.44C127.869 55.264 127.653 55.088 127.461 54.912V54.336L129.525 52.224C128.597 51.424 128.133 50.376 128.133 49.08C128.133 48.296 128.317 47.584 128.685 46.944C129.069 46.288 129.621 45.768 130.341 45.384C131.061 45 131.925 44.808 132.933 44.808C133.605 44.808 134.229 44.904 134.805 45.096H139.245V46.776L137.133 46.896C137.517 47.552 137.709 48.28 137.709 49.08C137.709 49.88 137.517 50.6 137.133 51.24C136.765 51.88 136.221 52.392 135.501 52.776C134.797 53.16 133.941 53.352 132.933 53.352ZM132.933 51.36C133.669 51.36 134.261 51.168 134.709 50.784C135.173 50.384 135.405 49.824 135.405 49.104C135.405 48.368 135.173 47.808 134.709 47.424C134.261 47.04 133.669 46.848 132.933 46.848C132.181 46.848 131.573 47.04 131.109 47.424C130.661 47.808 130.437 48.368 130.437 49.104C130.437 49.824 130.661 50.384 131.109 50.784C131.573 51.168 132.181 51.36 132.933 51.36ZM129.741 58.512C129.741 59.2 130.045 59.712 130.653 60.048C131.261 60.4 132.021 60.576 132.933 60.576C133.813 60.576 134.525 60.384 135.069 60C135.613 59.632 135.885 59.136 135.885 58.512C135.885 58.048 135.701 57.648 135.333 57.312C134.965 56.992 134.269 56.792 133.245 56.712C132.477 56.664 131.797 56.592 131.205 56.496C130.645 56.8 130.261 57.128 130.053 57.48C129.845 57.832 129.741 58.176 129.741 58.512ZM141.514 57V39.72H144.058V57H141.514ZM152.848 57.288C151.68 57.288 150.64 57.032 149.728 56.52C148.832 55.992 148.128 55.264 147.616 54.336C147.104 53.408 146.848 52.328 146.848 51.096C146.848 49.848 147.096 48.752 147.592 47.808C148.104 46.864 148.808 46.128 149.704 45.6C150.616 45.072 151.672 44.808 152.872 44.808C154.04 44.808 155.056 45.072 155.92 45.6C156.784 46.112 157.456 46.8 157.936 47.664C158.416 48.528 158.656 49.48 158.656 50.52C158.656 50.68 158.648 50.856 158.632 51.048C158.632 51.224 158.624 51.424 158.608 51.648H149.344C149.424 52.8 149.8 53.68 150.472 54.288C151.16 54.88 151.952 55.176 152.848 55.176C153.568 55.176 154.168 55.016 154.648 54.696C155.144 54.36 155.512 53.912 155.752 53.352H158.296C157.976 54.472 157.336 55.408 156.376 56.16C155.432 56.912 154.256 57.288 152.848 57.288ZM152.848 46.896C152 46.896 151.248 47.152 150.592 47.664C149.936 48.16 149.536 48.912 149.392 49.92H156.112C156.064 48.992 155.736 48.256 155.128 47.712C154.52 47.168 153.76 46.896 152.848 46.896ZM167.438 57V40.2H173.318C174.63 40.2 175.718 40.424 176.582 40.872C177.446 41.304 178.086 41.904 178.502 42.672C178.934 43.424 179.15 44.28 179.15 45.24C179.15 46.152 178.942 46.992 178.526 47.76C178.126 48.512 177.494 49.112 176.63 49.56C175.766 50.008 174.662 50.232 173.318 50.232H169.982V57H167.438ZM169.982 48.144H173.198C174.398 48.144 175.254 47.888 175.766 47.376C176.294 46.848 176.558 46.136 176.558 45.24C176.558 44.312 176.294 43.592 175.766 43.08C175.254 42.552 174.398 42.288 173.198 42.288H169.982V48.144ZM181.569 57V39.72H184.113V57H181.569ZM191.367 57.288C190.359 57.288 189.527 57.12 188.871 56.784C188.215 56.448 187.727 56.008 187.407 55.464C187.087 54.904 186.927 54.296 186.927 53.64C186.927 52.488 187.375 51.576 188.271 50.904C189.167 50.232 190.447 49.896 192.111 49.896H195.231V49.68C195.231 48.752 194.975 48.056 194.463 47.592C193.967 47.128 193.319 46.896 192.519 46.896C191.815 46.896 191.199 47.072 190.671 47.424C190.159 47.76 189.847 48.264 189.735 48.936H187.191C187.271 48.072 187.559 47.336 188.055 46.728C188.567 46.104 189.207 45.632 189.975 45.312C190.759 44.976 191.615 44.808 192.543 44.808C194.207 44.808 195.495 45.248 196.407 46.128C197.319 46.992 197.775 48.176 197.775 49.68V57H195.567L195.351 54.96C195.015 55.616 194.527 56.168 193.887 56.616C193.247 57.064 192.407 57.288 191.367 57.288ZM191.871 55.224C192.559 55.224 193.135 55.064 193.599 54.744C194.079 54.408 194.447 53.968 194.703 53.424C194.975 52.88 195.143 52.28 195.207 51.624H192.375C191.367 51.624 190.647 51.8 190.215 52.152C189.799 52.504 189.591 52.944 189.591 53.472C189.591 54.016 189.791 54.448 190.191 54.768C190.607 55.072 191.167 55.224 191.871 55.224ZM201.758 62.28L204.614 56.016H203.918L199.214 45.096H201.974L205.622 53.904L209.438 45.096H212.126L204.446 62.28H201.758Z" fill="white"/>
<defs>
<clipPath id="clip0_597_1460">
<rect width="43" height="43" fill="white" transform="translate(19 14)"/>
</clipPath>
</defs>
</svg>
