<svg width="19" height="22" viewBox="0 0 19 22" fill="none" xmlns="http://www.w3.org/2000/svg">
<path d="M14.6586 7.5463C12.2305 6.11686 8.33328 3.8215 2.28842 0.259002C1.88087 -0.024292 1.41197 -0.0614171 1.00684 0.0829153L11.3781 10.9991L14.6586 7.5463Z" fill="#32BBFF"/>
<path d="M1.00689 0.0830994C0.930954 0.11017 0.857063 0.142826 0.786397 0.182271C0.339008 0.436991 0.0102539 0.927136 0.0102539 1.54705V20.4516C0.0102539 21.0715 0.338967 21.5617 0.786397 21.8164C0.85694 21.8558 0.93079 21.8885 1.00664 21.9158L11.3782 10.9993L1.00689 0.0830994Z" fill="#32BBFF"/>
<path d="M11.3784 10.9992L1.00684 21.9156C1.41209 22.061 1.881 22.0267 2.28866 21.7393C8.15088 18.2842 12.0042 16.016 14.4604 14.5744C14.5287 14.534 14.5957 14.4945 14.662 14.4553L11.3784 10.9992Z" fill="#32BBFF"/>
<path d="M0.0102539 10.9992V20.4514C0.0102539 21.0714 0.338967 21.5615 0.786397 21.8162C0.85694 21.8556 0.93079 21.8884 1.00664 21.9156L11.3782 10.9992H0.0102539Z" fill="#2C9FD9"/>
<path d="M2.2882 0.259012C1.80424 -0.0773478 1.23352 -0.0677658 0.786133 0.182141L11.2205 11.1648L14.6584 7.54631C12.2303 6.11687 8.33307 3.82152 2.2882 0.259012Z" fill="#29CC5E"/>
<path d="M11.2206 10.8336L0.786133 21.8162C1.23356 22.066 1.80424 22.0805 2.2882 21.7393C8.15042 18.2842 12.0037 16.016 14.4599 14.5744C14.5283 14.534 14.5953 14.4945 14.6615 14.4553L11.2206 10.8336Z" fill="#D93F21"/>
<path d="M18.9893 10.9991C18.9893 10.4754 18.7382 9.94675 18.2405 9.65362C18.2405 9.65362 17.3098 9.10701 14.4569 7.42744L11.0635 10.9991L14.4602 14.5744C17.2818 12.9069 18.2405 12.3446 18.2405 12.3446C18.7382 12.0515 18.9893 11.5229 18.9893 10.9991Z" fill="#FFD500"/>
<path d="M18.2405 12.3447C18.7382 12.0516 18.9893 11.523 18.9893 10.9992H11.0635L14.4602 14.5744C17.2818 12.9069 18.2405 12.3447 18.2405 12.3447Z" fill="#FFAA00"/>
</svg>
