<svg width="149" height="97" viewBox="0 0 149 97" fill="none" xmlns="http://www.w3.org/2000/svg">
<path d="M102.277 13.6701L102.782 12.8067L102.277 13.6701ZM141.954 97L148.127 87.2419L136.59 86.7745L141.954 97ZM0.538103 1.88693C0.835238 2.04168 1.13437 2.19525 1.43544 2.34768L2.3388 0.563318C2.04446 0.414302 1.75214 0.264219 1.4619 0.113067L0.538103 1.88693ZM3.26473 3.24839C3.87485 3.54061 4.49215 3.82838 5.11623 4.11174L5.94307 2.29065C5.33106 2.01278 4.72614 1.73078 4.12869 1.44462L3.26473 3.24839ZM6.9754 4.93438C7.59758 5.20271 8.22587 5.46689 8.85988 5.72695L9.61888 3.87656C8.99563 3.62092 8.37836 3.36137 7.76743 3.09789L6.9754 4.93438ZM10.742 6.4805C11.3743 6.72759 12.0117 6.97077 12.6539 7.21008L13.3522 5.33597C12.7197 5.10027 12.0922 4.86085 11.47 4.61771L10.742 6.4805ZM14.5544 7.90218C15.1924 8.12919 15.8346 8.35254 16.4807 8.57224L17.1245 6.6787C16.4871 6.46196 15.8538 6.24172 15.225 6.01794L14.5544 7.90218ZM18.4046 9.21197C19.0469 9.42086 19.6927 9.62626 20.3418 9.82823L20.936 7.91855C20.2949 7.71905 19.6572 7.51622 19.0231 7.31001L18.4046 9.21197ZM22.2858 10.4201C22.9321 10.6127 23.5812 10.8019 24.2328 10.9878L24.7816 9.0646C24.1373 8.88075 23.4956 8.69369 22.8568 8.50339L22.2858 10.4201ZM26.1923 11.5351C26.8425 11.7128 27.4948 11.8873 28.149 12.0587L28.6558 10.124C28.0083 9.95437 27.3629 9.78169 26.7197 9.60589L26.1923 11.5351ZM30.1169 12.5633C30.7718 12.7276 31.4282 12.8889 32.086 13.047L32.5536 11.1024C31.9022 10.9458 31.2521 10.7861 30.6037 10.6234L30.1169 12.5633ZM34.0604 13.5117C34.7192 13.6635 35.3791 13.8123 36.0397 13.958L36.4705 12.0049C35.8159 11.8605 35.1621 11.7131 34.5093 11.5628L34.0604 13.5117ZM38.0217 14.3858C38.6829 14.5254 39.3446 14.6621 40.0064 14.7958L40.4024 12.8354C39.7463 12.7028 39.0903 12.5674 38.4349 12.4289L38.0217 14.3858ZM41.9974 15.1891C42.661 15.3173 43.3245 15.4425 43.9875 15.5648L44.3503 13.598C43.6927 13.4767 43.0347 13.3525 42.3767 13.2254L41.9974 15.1891ZM45.9846 15.9247C46.6512 16.042 47.3171 16.1564 47.9819 16.2679L48.3126 14.2954C47.6531 14.1848 46.9926 14.0713 46.3313 13.955L45.9846 15.9247ZM49.9806 16.5949C50.6508 16.7018 51.3197 16.8058 51.9868 16.9069L52.2864 14.9295C51.6244 14.8292 50.9608 14.726 50.2958 14.6199L49.9806 16.5949ZM53.9833 17.2015C54.6577 17.2983 55.3301 17.3922 56.0001 17.4831L56.269 15.5013C55.6042 15.4111 54.9369 15.3179 54.2676 15.2218L53.9833 17.2015ZM58.0025 17.7471C58.678 17.8335 59.3507 17.9169 60.0202 17.9973L60.2587 16.0115C59.5942 15.9317 58.9266 15.849 58.2563 15.7632L58.0025 17.7471ZM62.0303 18.2308C62.7061 18.3067 63.3782 18.3795 64.0464 18.4493L64.2541 16.4601C63.5911 16.3909 62.9241 16.3186 62.2535 16.2433L62.0303 18.2308ZM66.0648 18.6521C66.7407 18.7173 67.412 18.7793 68.0783 18.8383L68.2546 16.8461C67.5935 16.7876 66.9275 16.726 66.2569 16.6613L66.0648 18.6521ZM70.1053 19.0093C70.7817 19.0635 71.4523 19.1145 72.1169 19.1622L72.2602 17.1674C71.6012 17.1201 70.9361 17.0695 70.2653 17.0157L70.1053 19.0093ZM74.1514 19.2996C74.8293 19.3423 75.5002 19.3817 76.1635 19.4175L76.2716 17.4205C75.6143 17.3849 74.9494 17.3459 74.2773 17.3035L74.1514 19.2996ZM78.2026 19.5182C78.8841 19.5486 79.5567 19.5753 80.2198 19.5982L80.289 17.5994C79.6326 17.5767 78.9666 17.5503 78.2916 17.5202L78.2026 19.5182ZM82.2573 19.6578C82.9454 19.6742 83.6221 19.6864 84.2865 19.6945L84.3109 17.6947C83.6544 17.6867 82.9855 17.6746 82.3049 17.6584L82.2573 19.6578ZM86.3107 19.7065C87.0093 19.7061 87.6926 19.7009 88.3596 19.6909L88.3295 17.6911C87.6725 17.701 86.9989 17.7061 86.3096 17.7065L86.3107 19.7065ZM90.3732 19.6446C91.0776 19.6225 91.7609 19.5946 92.4217 19.5609L92.3199 17.5635C91.6729 17.5964 91.0027 17.6238 90.3105 17.6455L90.3732 19.6446ZM94.4734 19.4324C95.1851 19.3789 95.8651 19.3177 96.5113 19.2488L96.2995 17.2601C95.6758 17.3265 95.0165 17.3859 94.3235 17.438L94.4734 19.4324ZM98.5499 18.9893C99.2971 18.8765 99.9858 18.7501 100.61 18.6098L100.172 16.6584C99.6021 16.7864 98.9611 16.9046 98.2513 17.0118L98.5499 18.9893ZM102.702 17.9933C103.582 17.6468 104.464 17.1433 104.835 16.3339L103.018 15.4997C103.018 15.4989 103.009 15.5189 102.974 15.5574C102.939 15.5964 102.882 15.6488 102.794 15.7115C102.616 15.8393 102.348 15.9833 101.969 16.1325L102.702 17.9933ZM103.77 13.4723C103.486 13.2461 103.155 13.0247 102.782 12.8067L101.772 14.5335C102.084 14.7156 102.332 14.8842 102.525 15.0375L103.77 13.4723ZM102.782 12.8067C102.407 12.5878 102.065 12.4062 101.755 12.2657L100.928 14.0866C101.157 14.1907 101.437 14.3373 101.772 14.5335L102.782 12.8067ZM99.0287 13.8679C99.1515 14.4604 99.4807 15.1974 99.9079 16.004L101.675 15.0678C101.258 14.2791 101.048 13.7563 100.987 13.462L99.0287 13.8679ZM100.945 17.8126C101.274 18.3544 101.64 18.938 102.04 19.5601L103.722 18.479C103.329 17.8675 102.973 17.2989 102.655 16.7755L100.945 17.8126ZM103.161 21.276C103.516 21.8126 103.891 22.372 104.282 22.9528L105.941 21.8345C105.551 21.2573 105.18 20.7025 104.828 20.1713L103.161 21.276ZM105.425 24.6367C105.8 25.1871 106.187 25.7536 106.586 26.3353L108.236 25.2043C107.838 24.6237 107.451 24.0588 107.077 23.5103L105.425 24.6367ZM107.728 27.9976C108.104 28.5445 108.488 29.1036 108.88 29.673L110.528 28.5399C110.136 27.9699 109.752 27.4116 109.376 26.8646L107.728 27.9976ZM110.037 31.3573C110.411 31.9032 110.792 32.4578 111.177 33.0208L112.828 31.8915C112.442 31.3276 112.061 30.7721 111.686 30.2256L110.037 31.3573ZM112.333 34.7152C112.706 35.2626 113.083 35.8169 113.462 36.3778L115.119 35.2564C114.738 34.694 114.36 34.1382 113.987 33.5895L112.333 34.7152ZM114.606 38.0718C114.977 38.6246 115.352 39.1829 115.728 39.7465L117.391 38.6364C117.014 38.0706 116.638 37.5103 116.265 36.9557L114.606 38.0718ZM116.856 41.4449C117.225 42.0024 117.595 42.5644 117.966 43.1307L119.639 42.0346C119.266 41.4658 118.895 40.9013 118.524 40.3415L116.856 41.4449ZM119.078 44.8366C119.443 45.3988 119.807 45.9647 120.172 46.5339L121.856 45.4547C121.489 44.8824 121.123 44.3136 120.756 43.7486L119.078 44.8366ZM121.265 48.2492C121.624 48.8165 121.982 49.3867 122.34 49.9595L124.037 48.9002C123.677 48.3238 123.316 47.7502 122.955 47.1796L121.265 48.2492ZM123.41 51.6853C123.763 52.2583 124.114 52.8336 124.464 53.4108L126.174 52.3745C125.822 51.7932 125.468 51.214 125.113 50.637L123.41 51.6853ZM125.507 55.1474C125.852 55.7271 126.195 56.3083 126.536 56.8907L128.262 55.8813C127.919 55.294 127.573 54.7082 127.225 54.1241L125.507 55.1474ZM127.549 58.641C127.885 59.2274 128.218 59.8147 128.548 60.4025L130.292 59.4242C129.96 58.8307 129.623 58.2381 129.284 57.6465L127.549 58.641ZM129.528 62.1693C129.853 62.7626 130.174 63.3562 130.491 63.9497L132.255 63.0077C131.935 62.4077 131.61 61.8078 131.282 61.2084L129.528 62.1693ZM131.431 65.7357C131.743 66.3363 132.05 66.9366 132.352 67.536L134.138 66.6369C133.832 66.0297 133.522 65.422 133.206 64.8142L131.431 65.7357ZM133.246 69.3437C133.542 69.9525 133.832 70.56 134.116 71.1659L135.927 70.3179C135.639 69.7027 135.345 69.0863 135.045 68.469L133.246 69.3437ZM134.956 72.9973C135.233 73.6151 135.503 74.2309 135.765 74.8441L137.604 74.0581C137.337 73.4335 137.062 72.8069 136.78 72.1788L134.956 72.9973ZM136.537 76.7002C136.791 77.3285 137.036 77.9537 137.272 78.5753L139.142 77.8656C138.901 77.2299 138.65 76.5913 138.391 75.9502L136.537 76.7002ZM137.961 80.4553C138.187 81.0958 138.401 81.7319 138.605 82.363L140.508 81.7494C140.299 81.1004 140.079 80.4473 139.847 79.7906L137.961 80.4553ZM139.187 84.2631C139.376 84.9173 139.552 85.5653 139.714 86.2065L141.653 85.7171C141.485 85.0524 141.303 84.3821 141.108 83.7069L139.187 84.2631ZM140.162 88.1345C140.302 88.7972 140.425 89.4514 140.532 90.0965L142.505 89.7716C142.394 89.0951 142.264 88.4113 142.118 87.7208L140.162 88.1345ZM140.804 92.0587C140.877 92.7191 140.931 93.3683 140.963 94.0056L142.96 93.9041C142.926 93.2244 142.869 92.5351 142.791 91.8371L140.804 92.0587Z" fill="#B9B9B9"/>
</svg>
